<?xml version="1.0" standalone="no"?>
<!DOCTYPE svg PUBLIC "-//W3C//DTD SVG 20010904//EN"
 "http://www.w3.org/TR/2001/REC-SVG-20010904/DTD/svg10.dtd">
<svg version="1.0" xmlns="http://www.w3.org/2000/svg"
 width="512.000000pt" height="512.000000pt" viewBox="0 0 512.000000 512.000000"
 preserveAspectRatio="xMidYMid meet">
<metadata>
Created by potrace 1.14, written by Peter Selinger 2001-2017
</metadata>
<g transform="translate(0.000000,512.000000) scale(0.100000,-0.100000)"
fill="#000000" stroke="none">
<path d="M3417 4996 c-5 -12 0 -13 26 -4 44 15 45 18 10 18 -18 0 -33 -6 -36
-14z"/>
<path d="M3314 4967 c-19 -11 -20 -14 -7 -26 17 -16 37 -2 31 22 -2 13 -7 13
-24 4z"/>
<path d="M3695 4930 c-4 -6 5 -10 19 -10 14 0 26 5 26 10 0 6 -9 10 -19 10
-11 0 -23 -4 -26 -10z"/>
<path d="M2970 4829 c0 -5 5 -7 10 -4 6 3 10 8 10 11 0 2 -4 4 -10 4 -5 0 -10
-5 -10 -11z"/>
<path d="M2834 4810 c1 -8 8 -15 15 -15 8 0 17 7 19 15 4 13 3 13 -11 2 -13
-11 -16 -11 -20 0 -2 8 -4 8 -3 -2z"/>
<path d="M3263 4813 c-15 -5 -17 -23 -4 -23 5 0 11 7 15 15 3 8 4 15 3 14 -1
0 -8 -3 -14 -6z"/>
<path d="M2802 4790 c0 -14 2 -19 5 -12 2 6 2 18 0 25 -3 6 -5 1 -5 -13z"/>
<path d="M2935 4800 c-3 -5 1 -10 9 -10 9 0 16 5 16 10 0 6 -4 10 -9 10 -6 0
-13 -4 -16 -10z"/>
<path d="M2966 4785 c-4 -10 -14 -13 -34 -9 -36 7 -61 -16 -37 -36 8 -7 29
-13 46 -15 17 -1 34 -8 39 -14 5 -9 14 -1 28 23 17 29 19 36 6 36 -8 0 -17 7
-20 15 -8 19 -20 19 -28 0z"/>
<path d="M3216 4785 c-3 -8 -12 -15 -21 -15 -8 0 -15 -7 -15 -15 0 -8 -7 -15
-15 -15 -8 0 -14 -6 -12 -12 2 -15 -41 -12 -59 3 -24 20 -88 -5 -89 -34 -1 -7
-7 -11 -14 -9 -8 2 -10 -4 -6 -18 9 -28 -11 -25 -39 5 -27 28 -39 31 -55 11
-7 -8 -19 -12 -29 -9 -12 3 -22 -7 -34 -35 -21 -48 -14 -85 13 -77 12 4 21 1
25 -9 8 -20 33 -21 40 -1 4 8 10 15 14 15 15 0 38 -59 33 -80 -5 -19 -3 -20
21 -9 17 8 25 18 21 27 -3 9 0 19 7 24 18 11 40 10 33 -2 -3 -5 7 -2 24 8 35
20 51 10 32 -21 -14 -22 -14 -22 8 -3 11 11 21 17 22 15 1 -2 2 -19 4 -36 3
-36 0 -37 -57 -24 -21 5 -36 6 -34 2 2 -3 -27 -6 -65 -7 -38 0 -72 -4 -75 -7
-8 -8 81 -89 108 -100 11 -4 23 -5 28 -2 4 3 22 -11 40 -32 23 -26 44 -38 76
-44 24 -5 54 -18 66 -29 12 -11 25 -20 30 -20 4 0 24 -18 45 -39 21 -22 48
-42 61 -46 20 -6 22 -3 22 33 0 23 -6 45 -15 52 -8 7 -15 18 -15 25 0 7 -7 16
-16 19 -9 4 -14 9 -10 13 9 10 46 -28 39 -41 -4 -7 -2 -8 5 -1 16 15 3 125
-14 125 -17 0 -18 27 -1 33 9 4 8 8 -3 16 -10 7 -11 11 -2 11 6 0 12 9 12 20
0 11 -4 20 -10 20 -5 0 -10 6 -10 14 0 7 -15 17 -32 22 -32 9 -33 12 -36 67
-3 48 0 57 14 57 11 0 14 5 9 18 -3 9 -9 29 -12 44 -6 31 -27 53 -42 44 -5 -3
-7 -15 -4 -26 3 -12 0 -20 -7 -20 -7 0 -10 6 -7 14 3 7 1 18 -4 23 -13 13 -1
43 17 43 16 0 19 16 5 24 -5 3 -11 -1 -15 -9z m-181 -116 c-4 -5 0 -18 9 -28
15 -16 15 -19 1 -31 -12 -10 -15 -10 -15 4 0 9 -5 15 -12 14 -6 -2 -11 7 -11
20 1 32 1 32 19 32 8 0 12 -5 9 -11z m-68 -35 c-3 -4 1 -13 9 -21 17 -17 15
-44 -3 -51 -8 -2 -13 6 -13 21 0 14 -6 28 -12 30 -10 4 -9 8 2 16 16 12 27 15
17 5z m43 -35 c0 -6 -4 -7 -10 -4 -5 3 -10 11 -10 16 0 6 5 7 10 4 6 -3 10
-11 10 -16z m-50 -179 c0 -5 -5 -10 -11 -10 -5 0 -7 5 -4 10 3 6 8 10 11 10 2
0 4 -4 4 -10z"/>
<path d="M4187 4729 l-68 -41 3 -119 c2 -74 7 -118 13 -115 6 2 38 16 73 32
50 23 62 33 62 52 0 16 -4 21 -12 16 -10 -6 -10 -4 0 8 10 13 10 19 -4 32 -19
19 -21 70 -4 120 6 20 10 41 8 46 -2 5 -34 -9 -71 -31z m-27 -124 c0 -8 -4
-15 -10 -15 -5 0 -10 7 -10 15 0 8 5 15 10 15 6 0 10 -7 10 -15z"/>
<path d="M0 4740 c0 -11 5 -20 10 -20 6 0 10 9 10 20 0 11 -4 20 -10 20 -5 0
-10 -9 -10 -20z"/>
<path d="M3706 4718 c-9 -12 -14 -24 -11 -26 6 -7 24 8 35 29 15 27 -5 25 -24
-3z"/>
<path d="M2771 4721 c2 -13 -14 -51 -21 -51 -4 0 -10 -9 -13 -20 -3 -13 0 -20
9 -20 9 0 14 -12 14 -35 0 -43 14 -45 33 -5 11 21 12 30 3 33 -7 3 -5 15 8 40
10 19 16 40 12 45 -7 11 -46 23 -45 13z"/>
<path d="M3390 4709 c0 -5 5 -7 10 -4 6 3 10 8 10 11 0 2 -4 4 -10 4 -5 0 -10
-5 -10 -11z"/>
<path d="M360 4688 c0 -19 2 -20 10 -8 13 19 13 30 0 30 -5 0 -10 -10 -10 -22z"/>
<path d="M3648 4692 c-25 -15 -40 -53 -20 -52 16 1 53 40 50 54 -3 13 -7 13
-30 -2z"/>
<path d="M190 4676 c0 -7 10 -20 23 -29 12 -8 18 -19 14 -23 -4 -5 -11 -3 -15
3 -12 19 -72 21 -72 2 0 -6 7 -9 15 -5 9 3 15 0 15 -9 0 -8 8 -15 18 -16 14 0
14 -2 -3 -8 -11 -5 -25 -4 -32 1 -8 6 -12 2 -15 -14 -2 -17 -11 -24 -30 -26
-16 -2 -28 2 -28 8 0 6 5 8 10 5 5 -3 10 3 10 13 0 11 7 25 15 32 18 15 20 34
3 23 -19 -11 -38 -12 -38 -2 0 6 -6 7 -12 3 -8 -5 -7 0 2 11 9 11 10 16 3 11
-7 -4 -13 -3 -13 2 0 6 -9 8 -21 5 -17 -5 -20 -11 -15 -36 3 -17 13 -44 21
-60 8 -17 15 -47 15 -68 0 -21 5 -41 11 -44 6 -4 8 -14 5 -22 -3 -8 -1 -11 4
-8 7 4 9 -3 6 -19 -2 -13 -1 -26 3 -28 12 -5 24 -48 13 -48 -12 0 13 -82 40
-133 15 -29 17 -41 8 -52 -9 -10 -7 -15 8 -19 42 -14 62 -45 62 -96 0 -54 -16
-65 -47 -35 -19 20 -27 13 -18 -14 4 -13 15 -21 28 -22 21 0 21 -1 2 -9 -11
-5 -15 -9 -10 -9 6 -1 17 -17 24 -37 7 -19 19 -38 27 -41 8 -3 11 -9 8 -14 -2
-5 1 -19 7 -31 19 -35 38 -147 24 -142 -7 3 -9 -13 -5 -54 4 -48 12 -66 38
-96 21 -25 31 -44 27 -56 -7 -22 24 -90 41 -90 13 0 64 -62 64 -78 0 -5 10
-29 23 -53 18 -34 22 -54 18 -89 -4 -28 -9 -40 -14 -32 -6 9 -12 9 -25 -4 -12
-12 -16 -36 -17 -89 0 -52 -5 -79 -16 -92 -29 -34 -30 -43 -9 -79 17 -26 20
-43 15 -67 -4 -18 -6 -49 -6 -70 1 -34 -3 -40 -29 -50 -21 -8 -30 -18 -30 -34
0 -14 -6 -23 -16 -23 -10 0 -14 -6 -10 -17 3 -10 17 -81 31 -158 36 -190 44
-218 64 -209 9 4 32 9 51 10 19 1 35 3 35 4 0 1 47 4 105 6 89 3 145 9 145 14
0 0 50 3 110 6 61 3 129 6 152 7 24 1 43 6 43 10 0 5 5 5 10 2 17 -10 76 -18
119 -16 23 1 24 2 18 68 -4 37 -10 69 -14 72 -5 3 -8 22 -9 41 -1 74 -25 305
-40 388 -8 48 -16 120 -17 159 -1 48 -6 74 -14 78 -25 9 -15 59 18 86 27 22
30 28 20 47 -13 25 -15 70 -2 57 5 -6 11 -23 13 -40 3 -34 23 -36 23 -2 0 15
7 23 23 25 14 2 22 10 22 23 0 15 7 19 34 19 19 0 38 -4 41 -10 3 -5 18 2 34
16 l28 24 -23 108 c-12 59 -25 134 -29 167 -4 33 -9 68 -11 78 -4 10 0 17 9
17 11 0 19 -21 27 -72 33 -193 47 -268 52 -274 4 -3 20 4 37 17 17 12 33 20
36 17 4 -3 10 -32 15 -64 5 -33 19 -93 30 -134 11 -41 23 -115 27 -165 4 -60
13 -106 28 -140 12 -27 37 -86 56 -129 18 -44 44 -95 57 -114 17 -25 25 -52
27 -94 1 -32 10 -69 19 -83 16 -24 16 -25 -9 -25 -14 0 -25 -4 -25 -10 0 -11
12 -13 49 -10 13 1 27 -4 31 -10 6 -9 16 -9 44 1 20 7 36 16 36 19 0 4 11 12
25 18 16 7 25 20 25 34 0 17 3 19 12 10 16 -16 38 -15 38 3 0 22 31 35 52 21
16 -9 23 -6 44 18 14 16 23 35 20 42 -3 8 -9 21 -13 30 -4 12 -2 15 8 12 8 -3
13 -12 11 -22 -2 -9 1 -16 6 -16 6 0 12 -7 16 -15 3 -8 2 -14 -2 -14 -19 3
-23 -2 -12 -17 11 -13 10 -16 -8 -21 -12 -3 -22 -12 -22 -19 0 -10 7 -13 24
-8 19 4 24 1 28 -20 4 -20 2 -24 -7 -16 -6 5 -15 7 -18 4 -7 -8 14 -54 25 -54
9 0 11 -41 2 -64 -3 -9 -11 -13 -17 -9 -5 3 -7 1 -3 -5 3 -6 1 -14 -5 -17 -5
-4 -8 -14 -5 -22 4 -9 1 -22 -5 -29 -8 -10 -8 -14 0 -14 6 0 11 -17 11 -38 0
-21 7 -47 15 -59 13 -18 13 -22 0 -33 -16 -13 -21 -45 -6 -36 9 6 31 -36 31
-61 0 -9 6 -13 14 -10 11 4 13 1 9 -10 -4 -9 1 -21 12 -29 14 -10 15 -14 4
-14 -26 0 -40 -17 -50 -58 -7 -33 -5 -50 12 -89 11 -26 27 -56 36 -65 14 -15
13 -16 -9 -12 -23 5 -23 5 -3 -11 11 -9 19 -21 18 -26 -2 -5 0 -8 5 -7 16 3
61 -15 56 -23 -3 -5 -2 -9 3 -10 4 0 39 -2 77 -4 l68 -4 56 52 c62 59 112 123
112 145 0 12 -2 12 -17 1 -14 -12 -14 -10 1 14 10 15 22 27 26 27 4 0 20 18
36 41 15 23 30 36 32 30 2 -6 -4 -21 -12 -33 -9 -12 -16 -35 -16 -50 0 -16 -9
-72 -21 -126 -21 -98 -49 -161 -88 -196 -21 -19 -24 -20 -89 -2 -110 29 -266
114 -256 140 3 8 0 17 -7 22 -9 5 -10 2 -6 -9 3 -10 3 -17 0 -17 -12 0 -105
82 -218 190 -60 59 -148 142 -195 185 -151 138 -250 237 -250 248 0 6 17 28
37 49 25 26 32 38 21 38 -9 0 -16 6 -15 13 1 37 -4 57 -13 52 -6 -4 -8 -21 -5
-38 6 -29 3 -34 -29 -51 -20 -11 -36 -25 -36 -32 0 -7 -10 -20 -22 -29 l-23
-15 -32 206 c-18 114 -35 209 -38 212 -17 17 -13 -28 18 -220 l34 -213 -26
-22 c-25 -22 -26 -22 -33 -3 -11 30 -28 24 -28 -10 0 -24 -4 -30 -21 -30 -11
0 -18 -4 -15 -9 3 -4 17 -6 31 -3 14 2 25 2 25 -2 0 -3 -33 -30 -72 -60 -40
-30 -98 -80 -128 -111 -30 -31 -95 -80 -145 -110 -99 -59 -211 -150 -266 -217
-52 -63 -162 -225 -192 -283 -37 -70 -73 -186 -87 -278 -7 -46 -25 -107 -45
-150 -31 -67 -54 -155 -70 -269 -6 -40 -2 -57 29 -126 20 -44 55 -144 77 -223
23 -79 64 -195 92 -256 l50 -113 678 0 678 0 3 22 c4 31 26 34 34 4 l6 -26
117 0 117 0 -7 53 c-4 28 -8 81 -8 117 -1 79 -10 97 -39 81 -26 -14 -37 -34
-46 -83 -11 -60 -33 -48 -41 23 -4 33 -3 64 1 68 5 4 34 13 65 20 30 6 83 25
116 41 68 32 72 30 93 -33 20 -64 -5 -93 -31 -35 -9 21 -22 34 -36 36 -22 3
-23 0 -23 -55 0 -32 5 -74 11 -93 6 -19 10 -54 9 -77 l-1 -43 32 7 c28 5 31 4
26 -11 -6 -15 7 -16 150 -14 l157 3 10 33 c14 51 86 81 86 36 0 -8 -11 -19
-25 -24 -15 -6 -25 -17 -25 -30 0 -18 6 -20 66 -20 l66 0 -7 29 c-4 20 -1 39
12 58 13 21 14 25 2 16 -31 -25 -15 29 22 70 32 37 38 40 53 28 9 -8 19 -11
22 -8 3 3 17 2 29 -3 21 -8 24 -6 27 17 5 45 25 37 36 -14 19 -86 22 -112 12
-118 -5 -3 -14 5 -21 17 -22 44 -62 78 -91 78 -36 0 -68 -32 -68 -70 0 -38 26
-52 103 -56 44 -3 64 -9 77 -24 16 -18 30 -20 174 -20 178 0 171 -5 131 86
-14 32 -23 65 -20 74 3 9 -1 32 -9 52 -8 19 -20 66 -27 104 -6 38 -16 75 -21
82 -6 6 -8 34 -6 62 3 27 2 47 -2 45 -5 -3 -11 2 -14 11 -9 23 -7 31 4 14 7
-12 9 -10 7 8 -1 12 -6 21 -12 19 -5 -2 -17 12 -27 32 l-17 36 6 -57 c4 -39 2
-63 -7 -73 -19 -22 -32 -18 -24 8 18 54 -6 237 -32 237 -21 0 -17 28 6 40 15
8 20 8 21 -2 1 -7 5 9 10 36 8 53 44 98 87 111 17 5 22 2 22 -13 0 -13 -9 -22
-25 -26 -13 -3 -29 -15 -34 -25 -15 -28 -15 -108 0 -186 l13 -70 11 39 c11 39
12 40 98 62 142 38 174 63 162 127 -4 18 -8 100 -9 183 -4 177 -12 250 -36
324 -10 30 -25 82 -35 115 -22 80 -97 226 -152 297 -24 31 -50 72 -58 91 -17
40 -30 52 -70 61 -16 4 -70 27 -119 52 -100 49 -100 49 -90 32 4 -7 -3 -3 -14
9 -12 12 -38 34 -57 49 -35 26 -36 28 -18 45 21 21 247 100 369 129 45 11 101
31 125 44 45 26 80 22 104 -11 8 -10 19 -14 30 -10 15 6 11 13 -24 49 -39 41
-52 68 -32 68 5 0 23 -16 40 -35 l31 -36 69 21 c46 13 97 20 157 20 49 0 106
4 126 9 35 8 38 7 60 -25 30 -44 49 -49 162 -35 121 14 221 14 244 0 14 -9 47
-8 136 5 65 10 164 20 221 23 58 3 102 9 100 13 -5 7 101 20 168 20 l37 0 0
165 c0 156 1 165 19 165 47 0 51 8 51 95 0 46 4 95 10 109 8 23 15 26 54 26
58 0 76 8 76 32 0 19 -5 20 -59 16 -33 -2 -58 -1 -55 4 3 4 23 8 44 8 74 0 70
-16 70 262 0 233 -1 249 -17 244 -10 -2 -34 -7 -53 -11 l-35 -6 29 15 c15 9
39 16 52 16 22 0 24 4 24 49 0 49 -16 71 -37 50 -5 -5 -31 -11 -58 -14 -43 -5
-106 -19 -145 -33 -8 -3 -18 -5 -22 -4 -4 1 -20 -3 -35 -9 -15 -6 -41 -13 -58
-16 -16 -2 -51 -11 -77 -18 -27 -8 -48 -11 -48 -7 0 3 -5 1 -12 -6 -7 -7 -24
-12 -39 -12 -39 0 -96 -25 -75 -33 9 -4 16 -14 16 -23 0 -10 5 -14 15 -10 9 3
15 0 15 -10 0 -13 9 -15 53 -10 l52 5 -40 -13 c-38 -12 -38 -13 -14 -19 24 -6
27 -13 33 -69 3 -34 9 -141 12 -237 3 -97 10 -186 16 -198 8 -17 8 -30 0 -48
-16 -35 -15 -45 6 -45 14 0 14 -2 3 -9 -14 -9 -12 -53 5 -148 6 -30 4 -32 -29
-38 -47 -9 -57 -2 -47 35 5 16 6 38 3 50 -3 11 1 28 8 37 12 15 12 16 -8 11
-13 -4 -27 0 -34 8 -15 18 -39 18 -39 -1 0 -12 -28 -35 -43 -35 -12 0 -25 133
-26 270 -2 239 -12 403 -27 417 -7 7 -21 10 -31 6 -12 -4 -15 -3 -8 5 6 5 19
12 29 14 11 1 23 15 27 29 6 26 5 27 -21 19 -16 -5 -30 -6 -33 -4 -2 2 -30 -5
-62 -16 -32 -11 -60 -18 -63 -16 -2 3 -16 0 -30 -5 -14 -5 -45 -12 -70 -15
-24 -3 -55 -9 -69 -15 -13 -5 -70 -18 -126 -29 -56 -12 -129 -27 -162 -35 -33
-8 -77 -16 -99 -20 -21 -3 -41 -7 -45 -10 -4 -2 -29 -5 -55 -6 -26 -2 -49 -6
-52 -11 -7 -11 -24 -10 -24 1 0 14 78 36 240 70 219 45 290 62 290 70 0 3 -17
6 -37 5 -21 -1 -119 -5 -218 -8 -253 -9 -409 -17 -414 -21 -1 -2 4 -18 12 -34
9 -17 12 -31 8 -31 -4 0 -8 -22 -10 -49 -1 -27 -6 -73 -10 -102 -6 -39 -5 -61
6 -87 20 -49 10 -100 -23 -112 -30 -12 -35 -12 -32 -2 8 31 -47 86 -62 61 -18
-27 -146 12 -144 44 1 12 -6 17 -28 17 -47 0 -87 27 -109 73 -10 23 -16 31
-13 17 3 -14 13 -36 21 -49 13 -20 13 -25 2 -33 -12 -8 -11 -9 0 -6 19 5 51
-27 51 -51 0 -11 10 -27 22 -35 12 -9 19 -16 16 -16 -4 0 6 -15 23 -32 16 -18
31 -40 34 -49 5 -13 18 -16 78 -13 69 3 72 4 75 29 2 14 10 25 17 25 12 0 10
-13 -8 -62 -17 -49 -27 -63 -42 -63 -15 0 -20 7 -19 28 0 28 -1 29 -40 24 -23
-2 -81 -12 -131 -21 -85 -17 -90 -17 -102 0 -7 10 -13 24 -13 31 0 19 -24 16
-44 -6 -20 -22 -32 -90 -22 -118 6 -15 8 -15 16 -3 9 13 10 13 10 0 0 -10 3
-11 8 -3 5 8 19 6 52 -9 46 -22 212 -38 180 -18 -8 5 -32 10 -52 10 -20 0 -38
6 -41 13 -3 9 -9 9 -27 -1 -26 -16 -46 -3 -36 23 4 12 14 16 31 13 14 -3 30 0
35 7 14 16 170 20 170 4 0 -5 5 -7 11 -3 9 5 10 -7 7 -44 -3 -34 -1 -53 7 -56
7 -2 15 -28 18 -56 4 -29 12 -60 19 -69 11 -14 11 -14 -3 -3 -14 10 -18 10
-23 -3 -3 -8 -3 -22 0 -30 5 -12 -4 -14 -48 -10 -55 5 -50 1 14 -10 44 -7 68
-42 68 -101 0 -33 -2 -36 -25 -32 -13 3 -26 0 -29 -6 -2 -7 -9 -5 -17 5 -18
22 -85 53 -97 45 -6 -3 -15 1 -22 9 -7 8 -23 15 -35 15 -13 0 -30 11 -40 26
-11 18 -23 24 -36 21 -22 -6 -26 11 -5 19 8 3 12 12 9 20 -3 8 -9 11 -15 8 -9
-6 -21 6 -55 54 -18 26 -11 41 12 22 8 -7 1 10 -17 38 l-33 50 -6 -46 c-3 -26
-1 -55 5 -64 12 -20 3 -33 -18 -25 -10 4 -15 22 -15 63 0 60 -20 144 -34 144
-5 0 -5 9 -2 20 4 14 2 20 -8 20 -13 0 -13 5 -4 29 6 16 13 29 16 29 18 -2 22
4 12 16 -9 11 -9 16 -1 21 7 5 0 15 -21 27 -42 25 -79 17 -79 -17 0 -29 -6
-31 -27 -10 -18 18 -39 9 -23 -10 8 -9 8 -15 0 -20 -5 -3 -10 -15 -10 -26 0
-10 -6 -19 -12 -19 -9 0 -9 -3 -2 -8 6 -4 13 -15 17 -24 10 -27 -14 -21 -46
11 -26 26 -27 31 -15 53 7 12 16 25 19 28 3 3 -3 14 -14 25 -20 20 -20 20 -14
-3 3 -15 1 -22 -6 -19 -15 5 -18 78 -4 95 7 9 7 16 -2 25 -10 9 -15 8 -27 -7
-13 -19 -14 -19 -34 -1 -11 10 -19 28 -18 39 2 17 -2 20 -19 18 -25 -4 -31 16
-11 37 11 10 9 16 -7 29 -11 9 -26 31 -33 47 -8 17 -20 43 -28 58 -18 36 -19
147 -1 148 6 0 41 0 77 -1 36 -1 76 3 90 9 18 7 -24 10 -155 12 -139 2 -163 3
-103 8 43 4 79 9 80 11 2 3 20 25 39 50 20 25 38 53 42 63 3 9 11 17 17 17 6
0 9 -3 6 -8 -2 -4 47 -7 111 -6 88 0 117 4 124 15 5 8 9 10 9 6 0 -5 13 1 29
12 16 12 34 21 39 21 6 0 17 8 24 18 17 22 53 42 77 42 11 0 23 4 26 10 3 5
31 8 64 5 31 -2 85 -5 118 -6 l62 -2 32 -63 c19 -38 36 -61 43 -57 6 3 23 15
38 25 14 10 35 18 46 18 18 0 19 5 15 39 -5 34 -2 41 18 51 13 7 35 22 48 34
17 15 25 17 28 9 3 -7 10 -13 16 -13 7 0 18 -9 24 -20 15 -23 -1 -38 -22 -20
-13 11 -15 6 -15 -34 l0 -46 43 0 c27 0 37 3 28 9 -8 6 -10 11 -3 15 14 9 11
86 -4 86 -13 0 -44 33 -44 47 0 22 40 22 55 0 8 -12 15 -16 15 -10 0 17 35 21
56 6 18 -13 18 -15 2 -24 -13 -7 -18 -23 -18 -54 0 -59 8 -75 36 -75 20 0 23
4 19 23 -3 12 -7 70 -9 130 -1 59 -5 110 -8 113 -3 2 -31 -7 -63 -21 l-58 -25
7 60 c6 55 4 66 -28 136 -20 41 -40 73 -45 70 -11 -7 -25 49 -17 63 4 5 2 12
-4 16 -16 10 0 26 20 20 22 -7 34 29 19 57 -12 22 -18 22 -49 1 -22 -16 -23
-16 -16 2 4 11 2 22 -6 27 -23 14 -28 9 -22 -22 4 -16 3 -37 -2 -47 -16 -37
-12 -55 17 -65 15 -5 30 -16 33 -23 4 -11 -7 -9 -47 6 -29 11 -53 25 -55 30
-2 5 -22 9 -45 9 -31 0 -38 -3 -27 -10 13 -8 12 -10 -2 -10 -10 0 -18 7 -18
15 0 10 -11 15 -32 16 -18 0 -28 3 -21 5 7 3 -3 19 -25 38 -48 43 -76 57 -113
58 -18 1 -25 4 -18 8 15 10 -20 30 -53 30 -25 0 -68 25 -68 40 0 5 8 7 18 3
12 -4 10 1 -7 15 -27 25 -41 28 -41 10 0 -9 -3 -9 -11 -1 -6 6 -17 9 -25 6 -7
-2 -21 0 -31 6 -14 9 -9 10 25 7 41 -5 55 5 30 21 -7 4 -65 9 -128 9 -141 3
-133 2 -124 15 5 8 -4 10 -29 7 -20 -2 -34 -2 -32 1 3 2 -5 13 -18 24 -23 20
-28 20 -189 1 -51 -6 -59 0 -30 22 16 13 16 13 0 14 -10 0 -18 -6 -18 -12 0
-9 -4 -8 -10 2 -8 11 -9 7 -4 -14 7 -27 5 -29 -20 -22 -14 3 -26 3 -26 -2 0
-12 -54 -8 -68 6 -14 13 -45 16 -55 5 -4 -3 -33 -8 -64 -10 -91 -7 -92 -7 -86
-17 4 -5 -3 -7 -15 -4 -12 4 -20 2 -16 -3 3 -5 -6 -9 -19 -9 -14 0 -30 -7 -38
-16 -7 -8 -21 -13 -31 -11 -10 3 -16 1 -12 -4 5 -9 4 -10 -31 -14 -27 -3 -78
-30 -94 -49 -7 -8 -36 -22 -64 -30 -60 -18 -88 -35 -149 -91 -23 -22 -46 -39
-50 -38 -5 2 -8 -3 -8 -11 0 -18 -37 -31 -53 -19 -7 5 -39 9 -72 8 -54 0 -60
-3 -63 -23 -3 -16 2 -22 15 -21 10 0 13 3 6 6 -18 7 -16 23 2 23 8 0 15 -7 15
-15 0 -8 9 -15 20 -15 11 0 20 -6 20 -12 0 -9 2 -10 8 -2 11 17 58 11 53 -6
-2 -8 -5 -35 -6 -60 -1 -24 -7 -46 -12 -47 -6 -2 -9 -13 -6 -23 7 -27 -10 -25
-38 5 -13 13 -31 25 -39 25 -31 0 -57 53 -30 62 5 2 -2 8 -15 15 -23 10 -25 9
-25 -13 0 -13 -4 -24 -10 -24 -5 0 -10 -5 -10 -11 0 -5 5 -7 10 -4 6 3 13 -1
16 -9 3 -9 10 -14 14 -11 4 2 17 -4 29 -14 l22 -19 -42 2 c-27 1 -49 10 -65
25 -26 25 -22 51 10 51 17 0 18 2 6 10 -8 5 -25 10 -36 10 -13 0 -24 8 -27 20
-3 12 -14 20 -27 20 -13 0 -24 -8 -27 -20 -3 -11 -10 -20 -15 -20 -5 0 -12 9
-15 20 -3 11 -9 20 -14 20 -5 0 -12 0 -16 0 -5 0 -8 -10 -8 -22 0 -12 -6 -23
-13 -25 -7 -3 -12 4 -12 16 0 11 -4 23 -10 26 -17 10 -11 25 8 19 16 -5 16 -5
-1 9 -12 10 -31 13 -62 9 -43 -4 -45 -3 -43 19 2 18 -1 23 -14 21 -12 -2 -18
3 -18 14 0 16 -2 16 -16 -2 -11 -14 -17 -15 -21 -6 -2 7 -12 20 -21 29 -16 15
-15 16 8 10 21 -5 26 -3 26 12 0 12 -6 17 -18 13 -13 -3 -17 0 -12 11 4 11 -5
19 -30 28 -20 7 -36 17 -36 21 0 13 -38 47 -45 40 -3 -4 -3 1 1 11 3 10 1 17
-5 17 -15 0 -14 27 1 36 6 4 17 -1 25 -11 10 -15 13 -15 13 -4 0 29 -18 36
-65 25 -45 -10 -64 -33 -49 -57 5 -8 9 -7 14 2 7 10 14 10 32 2 17 -9 19 -12
6 -12 -9 -1 -20 -10 -23 -21 -3 -11 -13 -20 -20 -20 -17 0 -47 53 -44 78 4 42
-2 49 -43 58 -33 7 -43 14 -43 29 0 20 -15 23 -47 10 -15 -6 -18 -2 -18 25 0
18 4 29 10 25 6 -3 10 -1 10 4 0 15 -15 14 -29 -3 -16 -19 -46 -13 -48 10 -6
58 -17 105 -24 110 -5 3 -9 -2 -9 -10 0 -22 -30 -20 -31 2 -2 31 -4 37 -15 56
-15 25 -36 11 -32 -22 2 -15 -1 -27 -7 -27 -5 0 -9 13 -8 28 2 29 -1 31 -49
41 -20 5 -28 2 -28 -8z m-113 -88 c-3 -8 -6 -5 -6 6 -1 11 2 17 5 13 3 -3 4
-12 1 -19z m218 -8 c3 -5 1 -10 -5 -10 -6 0 -8 -4 -5 -10 3 -5 0 -10 -7 -10
-8 0 -21 -9 -31 -20 -24 -28 -43 -25 -61 10 -13 27 -13 30 2 31 46 4 63 7 69
13 10 9 31 7 38 -4z m65 -35 c0 -8 -7 -15 -15 -15 -16 0 -20 12 -8 23 11 12
23 8 23 -8z m-200 -11 c0 -9 -5 -14 -12 -12 -18 6 -21 28 -4 28 9 0 16 -7 16
-16z m190 -84 c0 -5 -4 -10 -10 -10 -5 0 -10 5 -10 10 0 6 5 10 10 10 6 0 10
-4 10 -10z m-170 -10 c0 -5 10 -10 23 -10 18 0 19 -2 7 -10 -8 -5 -26 -10 -40
-10 -14 0 -32 -9 -40 -19 -7 -11 -18 -17 -23 -14 -5 3 -3 9 4 13 7 5 13 19 15
32 1 12 3 24 3 26 3 7 51 0 51 -8z m134 -12 c-1 -10 5 -14 17 -11 15 4 19 0
17 -18 -2 -19 1 -23 16 -21 11 2 16 -1 14 -10 -3 -7 -12 -12 -22 -10 -9 2 -16
-2 -16 -8 0 -5 7 -10 15 -10 8 0 15 -7 15 -15 0 -18 -14 -19 -41 -5 -25 14
-24 6 3 -20 12 -11 19 -22 16 -26 -4 -3 -15 3 -27 15 -13 13 -21 16 -25 8 -3
-7 -3 -2 -1 10 7 27 -10 39 -23 17 -5 -9 -14 -14 -21 -10 -15 10 -14 33 2 39
8 4 9 8 1 14 -19 14 -12 44 13 54 13 5 23 13 23 20 0 6 6 9 13 6 6 -2 11 -11
11 -19z m91 2 c3 -5 -1 -10 -9 -10 -9 0 -16 5 -16 10 0 6 4 10 9 10 6 0 13 -4
16 -10z m60 -60 c7 -12 -2 -12 -30 0 -19 8 -19 9 2 9 12 1 25 -3 28 -9z m2097
-32 c-7 -7 -12 -8 -12 -2 0 6 3 14 7 17 3 4 9 5 12 2 2 -3 -1 -11 -7 -17z
m133 7 c6 -2 -16 -4 -47 -4 -32 -1 -58 3 -58 8 0 8 79 5 105 -4z m-248 -21
c-3 -3 -12 -4 -19 -1 -8 3 -5 6 6 6 11 1 17 -2 13 -5z m-1927 -30 c0 -8 -5
-12 -10 -9 -6 4 -8 11 -5 16 9 14 15 11 15 -7z m1280 9 c-8 -3 -24 -10 -35
-15 -20 -9 -20 -9 -1 6 11 9 27 16 35 15 14 0 14 -1 1 -6z m-1060 -37 c0 -8
-7 -16 -15 -20 -16 -6 -16 14 0 26 14 10 15 10 15 -6z m-40 -32 c0 -27 5 -37
20 -41 23 -6 24 -8 10 -33 -7 -13 -7 -21 0 -25 20 -12 9 -25 -20 -25 -36 0
-38 12 -7 33 19 13 20 17 8 29 -12 11 -13 10 -8 -4 5 -13 1 -18 -13 -18 -23 0
-26 10 -8 28 8 8 8 15 -2 27 -11 14 -11 18 -1 25 9 5 10 10 2 14 -16 10 -14
26 4 26 11 0 15 -11 15 -36z m-40 -6 c0 -5 -9 -8 -20 -8 -13 0 -20 7 -20 20 0
18 2 19 20 8 11 -7 20 -16 20 -20z m-144 -3 c14 -13 13 -15 -5 -15 -12 0 -21
6 -21 15 0 8 3 15 6 15 3 0 12 -7 20 -15z m-136 -144 c0 -6 -4 -13 -10 -16 -5
-3 -10 1 -10 9 0 9 5 16 10 16 6 0 10 -4 10 -9z m3025 -10 c10 -17 -9 -20 -30
-5 -18 14 -18 14 2 14 12 0 24 -4 28 -9z m-2460 -21 c3 -5 1 -10 -4 -10 -6 0
-11 5 -11 10 0 6 2 10 4 10 3 0 8 -4 11 -10z m109 -61 c-3 -5 -10 -7 -15 -3
-5 3 -7 10 -3 15 3 5 10 7 15 3 5 -3 7 -10 3 -15z m86 -10 c0 -6 -4 -7 -10 -4
-5 3 -10 11 -10 16 0 6 5 7 10 4 6 -3 10 -11 10 -16z m-760 1 c0 -5 -4 -10
-10 -10 -5 0 -10 5 -10 10 0 6 5 10 10 10 6 0 10 -4 10 -10z m340 -10 c0 -5
-4 -10 -9 -10 -6 0 -13 5 -16 10 -3 6 1 10 9 10 9 0 16 -4 16 -10z m450 -10
c0 -5 -2 -10 -4 -10 -3 0 -8 5 -11 10 -3 6 -1 10 4 10 6 0 11 -4 11 -10z
m-790 -10 c11 -1 12 -3 2 -7 -9 -3 -10 -9 -2 -18 14 -16 -2 -60 -26 -69 -23
-9 -28 -2 -15 22 9 17 8 19 -8 15 -14 -4 -19 2 -23 26 -3 17 -3 32 -2 34 3 2
35 1 74 -3z m80 -30 c0 -5 -2 -10 -4 -10 -3 0 -8 5 -11 10 -3 6 -1 10 4 10 6
0 11 -4 11 -10z m830 -38 c0 -15 -2 -15 -10 -2 -13 20 -13 33 0 25 6 -3 10
-14 10 -23z m30 13 c0 -8 4 -15 10 -15 5 0 14 -9 20 -20 15 -29 -14 -16 -34
15 -19 28 -20 35 -6 35 6 0 10 -7 10 -15z m47 -7 c-3 -8 -6 -5 -6 6 -1 11 2
17 5 13 3 -3 4 -12 1 -19z m-864 -8 c6 -23 -1 -25 -25 -6 -18 13 -14 26 8 26
6 0 14 -9 17 -20z m-69 -25 c-6 -16 -24 -21 -24 -7 0 11 11 22 21 22 5 0 6 -7
3 -15z m36 5 c0 -5 -2 -10 -4 -10 -3 0 -8 5 -11 10 -3 6 -1 10 4 10 6 0 11 -4
11 -10z m924 -6 c8 -22 7 -34 -3 -34 -5 0 -11 11 -13 25 -6 28 6 34 16 9z
m-1007 -8 c-3 -7 -1 -18 5 -24 8 -8 5 -9 -11 -5 -11 3 -21 7 -21 8 0 13 14 35
22 35 6 0 8 -6 5 -14z m-83 -11 c-7 -17 -20 -20 -28 -6 -7 10 3 21 20 21 8 0
11 -6 8 -15z m696 5 c0 -5 -2 -10 -4 -10 -3 0 -8 5 -11 10 -3 6 -1 10 4 10 6
0 11 -4 11 -10z m-530 -9 c0 -6 -4 -13 -10 -16 -5 -3 -10 1 -10 9 0 9 5 16 10
16 6 0 10 -4 10 -9z m294 -47 c9 -3 16 -13 16 -21 0 -20 -34 -12 -38 10 -4 19
-1 20 22 11z m-384 -19 c0 -8 -4 -15 -10 -15 -5 0 -10 7 -10 15 0 8 5 15 10
15 6 0 10 -7 10 -15z m60 5 c0 -5 -4 -10 -10 -10 -5 0 -10 5 -10 10 0 6 5 10
10 10 6 0 10 -4 10 -10z m902 -52 c-15 -15 -24 -6 -16 16 5 12 10 14 17 7 8
-8 8 -14 -1 -23z m-522 12 c0 -5 -2 -10 -4 -10 -3 0 -8 5 -11 10 -3 6 -1 10 4
10 6 0 11 -4 11 -10z m-230 -10 c0 -13 -11 -13 -30 0 -12 8 -11 10 8 10 12 0
22 -4 22 -10z m2850 -50 c0 -5 -5 -10 -11 -10 -5 0 -7 5 -4 10 3 6 8 10 11 10
2 0 4 -4 4 -10z m-2886 -8 c2 -4 -4 -9 -15 -9 -10 -1 -19 2 -19 8 0 11 27 12
34 1z m-184 -26 c0 -18 -16 -29 -30 -21 -13 8 -1 35 16 35 8 0 14 -6 14 -14z
m920 4 c0 -5 -7 -10 -15 -10 -8 0 -15 5 -15 10 0 6 7 10 15 10 8 0 15 -4 15
-10z m-740 -10 c0 -5 -2 -10 -4 -10 -3 0 -8 5 -11 10 -3 6 -1 10 4 10 6 0 11
-4 11 -10z m120 -62 c0 -4 -5 -8 -11 -8 -5 0 -7 5 -4 10 3 6 -1 13 -9 16 -9 3
-13 11 -9 17 6 10 33 -18 33 -35z m479 -152 c12 -65 21 -121 21 -123 0 -2 -10
-3 -22 -1 -13 2 -32 -5 -42 -14 -11 -10 -23 -18 -26 -18 -9 0 -26 54 -41 129
-12 62 -12 64 12 83 13 11 19 17 13 14 -13 -6 -47 31 -34 39 5 3 18 1 28 -4
14 -8 23 -5 36 11 10 11 22 16 26 12 5 -5 18 -62 29 -128z m268 52 c-3 -8 -6
-5 -6 6 -1 11 2 17 5 13 3 -3 4 -12 1 -19z m-413 -23 c3 -8 2 -16 -2 -19 -12
-7 -45 22 -38 33 8 13 33 4 40 -14z m3947 -12 c-35 -7 -66 -11 -69 -8 -3 2 14
7 37 11 23 4 44 10 46 14 3 5 15 5 28 2 16 -4 5 -9 -42 -19z m-88 -20 c-7 -2
-21 -2 -30 0 -10 3 -4 5 12 5 17 0 24 -2 18 -5z m-115 -18 c-3 -3 -23 -8 -44
-10 -38 -5 -38 -5 -6 4 18 5 36 11 39 15 4 3 9 4 11 1 3 -3 3 -7 0 -10z m49 9
c-3 -3 -12 -4 -19 -1 -8 3 -5 6 6 6 11 1 17 -2 13 -5z m-2797 -55 c22 -12 40
-22 40 -24 0 -1 -9 -5 -20 -8 -11 -3 -18 -2 -15 3 10 16 -64 21 -97 7 -56 -24
-60 -35 -55 -151 7 -124 19 -157 87 -220 49 -46 90 -60 90 -31 0 8 -5 15 -10
15 -27 0 -72 49 -101 109 -27 55 -31 73 -26 115 3 28 11 63 18 79 17 37 45 35
53 -3 4 -22 15 -35 38 -44 l32 -14 -37 -15 c-49 -21 -66 -56 -45 -99 l15 -32
14 32 c16 36 29 42 29 12 0 -11 7 -23 16 -27 9 -3 11 -9 6 -12 -5 -3 -12 -18
-16 -33 -6 -27 -5 -28 29 -28 26 0 41 -7 58 -26 12 -15 36 -33 52 -40 l30 -13
-42 -1 c-39 0 -43 -2 -43 -25 0 -20 5 -25 28 -26 15 -1 33 0 41 1 39 5 29 -51
-15 -83 -23 -17 -28 -17 -77 -3 -85 25 -143 93 -242 285 -24 44 -28 66 -28
125 1 162 80 234 193 175z m2323 -33 c-1 -16 2 -37 7 -46 14 -25 1 -31 -30
-15 -34 17 -47 45 -22 45 16 1 16 2 -1 14 -18 14 -18 15 0 25 30 18 48 8 46
-23z m-578 -86 c3 -11 12 -20 19 -20 8 0 19 -7 26 -15 7 -8 20 -15 30 -15 10
0 20 -10 23 -22 3 -13 14 -146 23 -297 17 -264 17 -274 -1 -287 -10 -8 -29
-11 -42 -8 -28 7 -42 -19 -24 -48 9 -15 9 -26 -1 -49 -16 -36 -25 -37 -40 -4
-8 18 -14 22 -24 14 -21 -17 -28 11 -7 30 20 19 21 18 -16 492 -13 156 -14
233 -4 242 13 13 32 7 38 -13z m-1562 -113 c-3 -7 2 -5 13 4 26 23 53 21 46
-3 -3 -11 3 -24 13 -32 10 -7 16 -19 13 -27 -3 -8 -1 -25 5 -39 12 -30 16
-140 5 -140 -4 0 -8 -9 -8 -19 0 -11 -4 -23 -10 -26 -5 -3 -10 3 -10 15 0 12
-5 18 -10 15 -10 -6 -8 17 3 45 4 8 3 29 -2 45 -5 17 -10 23 -10 15 -1 -13 -2
-13 -11 0 -13 20 -13 33 0 25 13 -8 13 1 -2 42 -14 40 -32 38 -36 -3 -2 -19 5
-39 17 -54 11 -14 25 -30 30 -36 5 -6 6 -16 2 -23 -9 -14 -85 110 -95 156 -6
25 -3 34 15 47 24 16 44 12 32 -7z m2691 -237 c5 -52 4 -56 -23 -77 -47 -37
-59 -38 -55 -6 7 64 7 109 2 119 -4 5 -3 16 3 24 5 8 9 30 9 48 0 36 17 44 22
10 3 -18 6 -14 13 17 l9 40 7 -60 c4 -33 9 -85 13 -115z m-2270 65 c-4 -8 -7
-15 -9 -15 -2 0 -5 7 -9 15 -3 9 0 15 9 15 9 0 12 -6 9 -15z m-317 -132 c-3
-10 -5 -4 -5 12 0 17 2 24 5 18 2 -7 2 -21 0 -30z m473 -34 c0 -5 -4 -9 -10
-9 -5 0 -10 7 -10 16 0 8 5 12 10 9 6 -3 10 -10 10 -16z m2007 -11 c-3 -8 -6
-5 -6 6 -1 11 2 17 5 13 3 -3 4 -12 1 -19z m-2087 -38 c0 -5 -4 -10 -10 -10
-5 0 -10 5 -10 10 0 6 5 10 10 10 6 0 10 -4 10 -10z m1780 -68 c0 -13 -12 -22
-22 -16 -10 6 -1 24 13 24 5 0 9 -4 9 -8z m70 -14 c-11 -12 -23 -18 -27 -14
-5 4 1 14 11 22 30 21 39 17 16 -8z m-340 -55 c0 -6 6 -14 13 -17 6 -3 -7 -3
-29 0 -36 5 -46 2 -67 -20 -16 -16 -37 -26 -54 -26 l-28 0 32 19 c17 11 35 26
40 33 4 8 21 23 38 35 27 19 30 20 42 4 7 -9 13 -21 13 -28z m100 16 c0 -6 -4
-7 -10 -4 -5 3 -10 11 -10 16 0 6 5 7 10 4 6 -3 10 -11 10 -16z m-704 0 c6
-10 -37 -22 -62 -17 -9 1 -19 8 -21 15 -5 14 74 16 83 2z m-1592 -45 c20 -8
21 -24 2 -24 -8 0 -16 7 -20 15 -6 17 -4 18 18 9z m2543 -36 c-3 -7 -5 -2 -5
12 0 14 2 19 5 13 2 -7 2 -19 0 -25z m-574 15 c-7 -2 -19 -2 -25 0 -7 3 -2 5
12 5 14 0 19 -2 13 -5z m247 -23 c0 -5 -4 -10 -10 -10 -5 0 -10 5 -10 10 0 6
5 10 10 10 6 0 10 -4 10 -10z m-3483 -37 c-3 -10 -5 -4 -5 12 0 17 2 24 5 18
2 -7 2 -21 0 -30z m3424 -11 c-12 -17 -21 -35 -21 -41 0 -6 -5 -11 -11 -11 -6
0 -8 7 -5 16 3 9 6 23 6 32 0 15 38 43 49 36 2 -2 -6 -16 -18 -32z m389 21 c0
-5 -12 -16 -26 -27 -18 -13 -29 -15 -36 -8 -8 8 -3 13 16 18 14 3 26 10 26 15
0 5 5 9 10 9 6 0 10 -3 10 -7z m-3798 -68 c2 -19 0 -35 -4 -35 -4 0 -8 16 -8
35 0 19 2 35 4 35 2 0 6 -16 8 -35z m3548 9 c0 -2 -7 -4 -15 -4 -8 0 -15 4
-15 10 0 5 7 7 15 4 8 -4 15 -8 15 -10z m-3543 -91 c-3 -10 -5 -4 -5 12 0 17
2 24 5 18 2 -7 2 -21 0 -30z m2116 -1420 c11 -13 16 -23 10 -23 -6 0 -18 -3
-26 -6 -10 -3 -19 8 -31 36 -19 47 -19 50 -7 50 5 0 12 -8 14 -17 3 -13 5 -11
7 7 l3 25 4 -25 c3 -14 14 -35 26 -47z m-99 31 c9 -3 16 -16 16 -28 0 -12 6
-28 12 -34 10 -10 10 -15 -2 -22 -27 -17 -37 -10 -48 32 -14 53 -9 64 22 52z
m-34 -86 c0 -16 -4 -28 -10 -28 -5 0 -9 3 -8 8 1 4 -4 18 -11 31 -11 19 -11
25 0 32 17 10 29 -7 29 -43z m-46 -20 c10 -60 -7 -67 -37 -16 -26 44 -22 58
14 58 12 0 18 -13 23 -42z m344 2 c-24 -16 -73 -41 -109 -54 -35 -13 -95 -38
-133 -55 -38 -17 -71 -29 -74 -26 -8 8 -6 9 133 65 72 29 148 63 170 76 57 34
67 30 13 -6z m-423 0 c3 -5 -3 -10 -14 -10 -14 0 -19 -5 -14 -16 4 -11 8 -12
13 -4 5 8 9 7 13 -4 3 -8 1 -16 -5 -18 -13 -5 -2 -28 12 -28 5 0 11 8 13 18 4
16 5 16 6 -1 0 -10 -9 -21 -21 -26 -19 -7 -24 -4 -29 13 -3 12 -11 32 -18 44
-9 17 -8 23 6 31 23 13 30 13 38 1z m-67 -60 c17 -56 15 -66 -8 -39 -21 26
-26 19 -10 -12 6 -10 7 -19 2 -19 -4 0 -15 23 -23 50 -17 54 -11 64 15 28 16
-23 16 -23 6 -1 -12 26 -13 33 -2 33 4 0 13 -18 20 -40z m-103 -40 c20 -40 19
-57 -6 -71 -17 -9 -24 -8 -31 2 -6 10 -7 7 -3 -8 7 -24 -9 -33 -18 -10 -4 7
-6 6 -6 -4 -1 -9 -8 -20 -17 -23 -22 -8 -36 -8 -30 2 2 4 1 27 -4 52 -6 30 -5
47 3 52 13 8 27 1 27 -13 0 -6 -4 -7 -10 -4 -5 3 -10 -1 -10 -10 0 -9 5 -13
11 -9 8 4 9 -4 4 -27 l-7 -34 23 22 c18 18 20 25 10 37 -14 16 -11 61 3 61 5
0 16 -19 24 -43 8 -24 16 -41 19 -38 3 3 -2 25 -10 50 -13 39 -14 46 -2 46 8
0 21 -13 30 -30z m626 -31 c4 -13 7 -37 7 -54 l0 -30 -11 32 c-16 44 -31 55
-24 18 5 -24 15 -102 21 -160 1 -5 5 -25 10 -43 6 -27 4 -35 -16 -52 -12 -11
-26 -19 -30 -20 -13 0 -9 28 4 32 9 3 9 27 0 104 -16 129 -21 146 -41 142 -11
-2 -18 -17 -21 -51 -6 -55 -20 -61 -37 -14 -17 47 -16 77 5 83 9 3 37 13 62
24 54 22 62 21 71 -11z m-586 -9 c3 -5 1 -10 -4 -10 -6 0 -11 5 -11 10 0 6 2
10 4 10 3 0 8 -4 11 -10z m108 -21 c18 18 27 13 27 -15 0 -15 7 -32 17 -39 14
-11 13 -13 -10 -19 -14 -3 -29 -16 -33 -28 -6 -19 -7 -20 -16 -4 -5 9 -21 22
-35 27 -20 7 -23 13 -15 21 7 7 12 25 12 40 0 26 2 28 21 17 15 -8 24 -8 32 0z
m115 -15 c-8 -9 -26 -14 -39 -12 -23 4 -23 5 -4 12 11 4 27 11 35 16 22 11 26
2 8 -16z m183 -54 c15 -49 8 -59 -22 -31 -13 12 -25 21 -28 22 -10 1 -36 7
-46 10 -15 5 -55 -11 -55 -22 0 -26 26 -99 35 -99 19 0 35 23 35 52 0 18 5 28
15 28 8 0 15 -9 15 -19 0 -11 4 -22 9 -26 5 -3 13 -20 17 -37 3 -18 11 -40 18
-50 7 -12 7 -21 0 -28 -7 -7 -19 2 -39 29 -26 33 -31 36 -44 24 -13 -13 -13
-22 1 -71 13 -53 16 -57 42 -55 43 3 64 30 77 94 6 33 15 59 19 59 16 0 28
-27 35 -76 l6 -51 -48 -17 c-26 -9 -55 -21 -63 -26 -40 -24 -124 -60 -129 -55
-3 3 0 15 7 25 16 27 15 60 -4 105 -8 20 -18 74 -21 119 l-6 83 64 35 c74 42
92 39 110 -22z m-381 -29 c0 -20 -72 -64 -177 -108 -140 -59 -231 -93 -246
-92 -7 0 22 13 63 28 170 64 340 151 340 173 0 5 5 8 10 8 6 0 10 -4 10 -9z
m140 -65 c0 -7 -9 -20 -20 -27 -20 -13 -20 -16 -6 -54 9 -22 23 -66 32 -99 18
-65 29 -62 40 12 3 23 10 42 14 42 9 0 23 -128 14 -141 -3 -6 -11 -8 -18 -6
-18 7 -40 -14 -55 -51 -8 -18 -19 -31 -25 -29 -17 6 -19 36 -3 52 17 16 10 58
-18 112 -8 15 -15 35 -15 43 0 28 -35 73 -58 75 -36 3 -37 -34 -3 -127 17 -46
37 -104 45 -130 13 -46 13 -48 -10 -63 -26 -17 -64 -20 -64 -5 0 5 9 14 20 20
22 12 25 41 9 88 -10 30 -14 31 -56 15 -10 -3 -22 -7 -28 -7 -13 -2 -8 -108 5
-116 13 -8 -12 -31 -58 -55 -41 -20 -56 -10 -24 16 23 18 24 21 17 140 -8 123
-17 146 -49 120 -7 -6 -16 -8 -19 -4 -11 10 -8 33 4 33 11 0 66 22 101 41 23
12 36 -10 15 -26 -13 -9 -15 -23 -10 -67 5 -51 7 -55 27 -49 54 16 56 21 36
80 -10 29 -24 57 -31 62 -11 8 -9 14 11 29 41 33 44 34 75 48 17 8 41 20 55
27 33 18 50 18 50 1z m455 -190 c-9 -21 -18 -36 -21 -33 -3 2 3 24 12 48 10
23 19 38 21 33 2 -6 -4 -27 -12 -48z m-35 -41 c0 -8 -4 -23 -9 -33 -6 -9 -13
-34 -16 -54 -3 -21 -10 -40 -15 -43 -6 -4 -7 7 -3 26 4 23 3 30 -6 25 -25 -16
-23 25 3 51 14 14 26 30 26 34 0 5 5 9 10 9 6 0 10 -7 10 -15z m-42 -200 c0
-26 -12 -33 -23 -15 -8 13 4 52 14 45 5 -2 9 -16 9 -30z"/>
<path d="M2250 2890 c0 -5 5 -10 10 -10 6 0 10 5 10 10 0 6 -4 10 -10 10 -5 0
-10 -4 -10 -10z"/>
<path d="M2750 930 c0 -5 5 -10 11 -10 5 0 7 5 4 10 -3 6 -8 10 -11 10 -2 0
-4 -4 -4 -10z"/>
<path d="M2370 735 c0 -5 5 -17 10 -25 5 -8 10 -10 10 -5 0 6 -5 17 -10 25 -5
8 -10 11 -10 5z"/>
<path d="M3716 4575 c-11 -8 -17 -17 -14 -20 2 -3 13 4 23 15 21 23 18 25 -9
5z"/>
<path d="M490 4495 c0 -8 2 -15 4 -15 2 0 6 7 10 15 3 8 1 15 -4 15 -6 0 -10
-7 -10 -15z"/>
<path d="M3556 4501 c-4 -7 -5 -15 -2 -18 9 -9 19 4 14 18 -4 11 -6 11 -12 0z"/>
<path d="M2230 4454 c-19 -7 -33 -13 -30 -14 26 -7 41 -7 46 1 3 5 16 9 30 9
13 0 24 5 24 10 0 13 -26 11 -70 -6z"/>
<path d="M4213 4453 c-14 -5 -18 -23 -5 -23 5 0 17 7 28 15 14 11 15 14 4 14
-8 0 -21 -3 -27 -6z"/>
<path d="M3570 4419 c-41 -28 -45 -34 -44 -70 1 -22 4 -42 8 -46 3 -3 6 -26 6
-49 0 -24 4 -45 8 -48 5 -3 6 29 4 70 -2 46 0 74 6 74 6 0 13 -8 15 -17 3 -11
5 -7 6 10 1 28 16 60 39 85 30 33 8 29 -48 -9z"/>
<path d="M4140 4415 c-7 -8 -8 -15 -2 -15 5 0 15 7 22 15 7 8 8 15 2 15 -5 0
-15 -7 -22 -15z"/>
<path d="M3450 4395 c0 -8 2 -15 4 -15 2 0 6 7 10 15 3 8 1 15 -4 15 -6 0 -10
-7 -10 -15z"/>
<path d="M3490 4380 c-9 -6 -10 -10 -3 -10 6 0 15 5 18 10 8 12 4 12 -15 0z"/>
<path d="M3410 4371 c0 -5 7 -12 16 -15 14 -5 15 -4 4 9 -14 17 -20 19 -20 6z"/>
<path d="M3465 4330 c3 -5 8 -10 11 -10 2 0 4 5 4 10 0 6 -5 10 -11 10 -5 0
-7 -4 -4 -10z"/>
<path d="M4150 4260 c-8 -5 -12 -12 -9 -15 8 -8 39 5 39 16 0 11 -11 11 -30
-1z"/>
<path d="M1193 4233 c-17 -6 -17 -23 0 -23 8 0 14 7 14 15 0 8 -1 15 -1 14 -1
0 -7 -3 -13 -6z"/>
<path d="M896 4221 c-4 -7 -5 -15 -2 -18 9 -9 19 4 14 18 -4 11 -6 11 -12 0z"/>
<path d="M3180 4215 c7 -8 17 -15 22 -15 6 0 5 7 -2 15 -7 8 -17 15 -22 15 -6
0 -5 -7 2 -15z"/>
<path d="M1405 4190 c3 -5 10 -10 16 -10 5 0 9 5 9 10 0 6 -7 10 -16 10 -8 0
-12 -4 -9 -10z"/>
<path d="M1166 4181 c-3 -4 -17 -7 -31 -6 -15 2 -25 -2 -25 -10 0 -8 11 -11
34 -9 27 3 35 0 39 -16 5 -20 37 -29 37 -9 0 6 9 8 20 4 26 -8 25 -2 -4 30
-17 18 -26 22 -30 13 -5 -10 -7 -10 -12 0 -7 14 -20 16 -28 3z"/>
<path d="M1360 4151 c0 -5 7 -14 15 -21 16 -14 18 -10 9 14 -6 17 -24 22 -24
7z"/>
<path d="M950 4130 c0 -17 3 -18 25 -8 14 6 25 15 25 20 0 4 -11 8 -25 8 -18
0 -25 -5 -25 -20z"/>
<path d="M1010 4119 c0 -12 5 -19 13 -16 6 2 20 0 30 -5 10 -5 17 -5 17 0 0
14 -26 33 -33 25 -4 -3 -7 -1 -7 5 0 7 -4 12 -10 12 -5 0 -10 -9 -10 -21z"/>
<path d="M1205 4040 c3 -5 14 -10 23 -10 15 0 15 2 2 10 -20 13 -33 13 -25 0z"/>
<path d="M3536 4012 c-2 -4 -1 -14 5 -22 7 -12 9 -10 9 8 0 23 -5 28 -14 14z"/>
<path d="M3820 4011 c0 -5 5 -13 10 -16 6 -3 10 -2 10 4 0 5 -4 13 -10 16 -5
3 -10 2 -10 -4z"/>
<path d="M20 4000 c0 -5 5 -10 11 -10 5 0 7 5 4 10 -3 6 -8 10 -11 10 -2 0 -4
-4 -4 -10z"/>
<path d="M3625 3990 c-8 -13 8 -18 29 -10 19 6 19 7 -2 12 -12 4 -24 2 -27 -2z"/>
<path d="M3592 3973 c2 -10 12 -19 23 -20 11 -2 14 0 8 3 -7 3 -13 12 -13 20
0 8 -5 14 -11 14 -6 0 -9 -8 -7 -17z"/>
<path d="M3635 3922 c-21 -7 -34 -42 -15 -42 5 0 10 5 10 10 0 6 11 10 25 10
16 0 25 6 25 15 0 16 -12 17 -45 7z"/>
<path d="M3690 3888 c0 -4 7 -8 15 -8 8 0 15 4 15 8 0 5 -7 9 -15 9 -8 0 -15
-4 -15 -9z"/>
<path d="M3774 3790 c-16 -7 -20 -15 -17 -34 6 -28 23 -26 23 4 0 10 6 20 13
23 6 2 10 7 7 9 -3 3 -15 2 -26 -2z"/>
<path d="M20 3727 c0 -32 24 -90 46 -108 23 -19 19 56 -5 78 -10 10 -23 27
-29 38 -11 18 -11 18 -12 -8z"/>
<path d="M124 3623 c4 -27 2 -43 -6 -45 -8 -3 -8 -9 0 -24 10 -17 11 -17 12
-1 0 9 7 17 15 17 19 0 10 58 -13 80 -13 13 -14 10 -8 -27z"/>
<path d="M3770 3626 c0 -14 5 -28 10 -31 6 -4 10 7 10 24 0 17 -4 31 -10 31
-5 0 -10 -11 -10 -24z"/>
<path d="M1 3554 c0 -11 3 -14 6 -6 3 7 2 16 -1 19 -3 4 -6 -2 -5 -13z"/>
<path d="M2901 3514 c-1 -6 -18 -16 -40 -22 -21 -7 -56 -26 -77 -43 l-39 -31
60 7 c33 4 85 8 115 10 30 2 72 11 92 19 21 9 51 16 68 16 16 0 30 4 30 9 0
10 -74 21 -146 21 -32 0 -54 5 -57 13 -3 7 -6 7 -6 1z"/>
<path d="M4388 3476 c-23 -17 -23 -26 1 -26 14 0 19 6 18 20 -1 11 -1 20 -2
20 0 0 -8 -7 -17 -14z"/>
<path d="M12 3442 c-14 -31 -17 -65 -3 -43 5 7 14 10 20 7 7 -5 11 3 11 23 0
40 -12 46 -28 13z"/>
<path d="M3093 3460 c-40 -6 -71 -20 -44 -20 7 0 11 -10 9 -22 -2 -16 4 -26
20 -33 29 -13 23 -28 -14 -36 -16 -4 -23 -7 -16 -8 6 0 12 -7 12 -15 0 -9 -7
-12 -19 -9 -10 3 -22 0 -26 -7 -11 -18 4 -60 21 -60 8 0 12 5 9 10 -3 6 -2 10
4 10 5 0 13 -4 16 -10 11 -17 24 -11 40 20 10 19 20 27 30 24 18 -7 18 -4 4
33 -23 55 -17 131 6 93 9 -15 25 -2 19 15 -8 19 -22 22 -71 15z"/>
<path d="M3190 3423 c1 -14 30 -48 30 -34 0 7 -7 19 -15 27 -8 9 -15 12 -15 7z"/>
<path d="M3260 3405 c-7 -8 -9 -15 -5 -15 4 0 2 -6 -4 -14 -9 -11 -6 -15 13
-18 18 -4 31 2 46 19 24 28 24 28 -11 36 -18 5 -31 2 -39 -8z"/>
<path d="M3618 3413 c7 -3 16 -2 19 1 4 3 -2 6 -13 5 -11 0 -14 -3 -6 -6z"/>
<path d="M2957 3390 c-21 -11 -63 -23 -94 -26 -52 -5 -146 -42 -113 -44 9 -1
5 -6 -10 -13 -23 -11 -21 -12 29 -15 39 -2 59 -8 68 -21 12 -19 85 -53 137
-65 28 -7 29 -6 22 25 -3 17 -6 42 -6 55 0 13 -10 33 -22 45 -13 12 -17 19
-10 15 11 -6 17 5 13 27 0 4 6 7 14 7 8 0 15 7 15 15 0 19 2 19 -43 -5z"/>
<path d="M2898 3393 c6 -2 18 -2 25 0 6 3 1 5 -13 5 -14 0 -19 -2 -12 -5z"/>
<path d="M2848 3383 c6 -2 18 -2 25 0 6 3 1 5 -13 5 -14 0 -19 -2 -12 -5z"/>
<path d="M1 3344 c-1 -37 37 -130 59 -144 4 -3 12 -21 19 -41 7 -21 20 -39 30
-42 15 -3 20 -18 26 -66 4 -33 11 -63 16 -66 10 -7 0 -35 -12 -35 -5 0 -9 5
-9 10 0 6 -16 27 -35 46 -31 30 -35 40 -30 68 5 23 2 38 -10 49 -9 9 -15 22
-14 29 2 14 -4 35 -26 83 -12 26 -14 -4 -14 -238 -1 -176 2 -266 9 -262 6 3
10 -5 10 -19 0 -14 5 -28 10 -31 6 -3 10 -19 10 -34 0 -15 3 -31 6 -34 9 -8
11 -87 3 -87 -8 0 -35 31 -43 50 -3 8 -4 -9 -2 -38 6 -64 25 -105 26 -54 0 24
4 32 19 32 20 0 34 53 32 123 -2 45 9 47 34 5 13 -22 20 -28 23 -18 3 8 8 17
11 20 21 16 31 72 31 165 0 58 4 107 10 110 6 4 9 -10 8 -34 -1 -23 2 -44 5
-48 4 -3 7 1 7 10 0 10 5 17 10 17 6 0 8 -11 4 -25 -4 -15 -2 -25 4 -25 6 0
14 15 17 33 4 17 12 35 18 38 19 13 6 179 -15 179 -5 0 -6 -9 -3 -20 4 -11 2
-20 -4 -20 -6 0 -11 7 -11 16 0 9 -8 32 -17 51 -14 31 -18 33 -28 19 -7 -8
-15 -13 -18 -9 -12 11 -8 98 5 111 9 9 9 12 0 12 -7 0 -12 12 -12 26 0 14 4
23 8 20 4 -2 14 -1 22 4 21 13 48 -6 65 -46 8 -19 21 -42 30 -50 8 -9 15 -27
15 -41 0 -21 -2 -24 -15 -13 -24 20 -19 -26 5 -52 18 -20 20 -20 20 -4 0 15 3
16 14 7 11 -9 16 -9 21 0 10 15 8 111 -2 118 -8 6 -12 16 -21 61 -5 22 -3 24
11 11 10 -7 17 -23 17 -35 0 -20 1 -20 19 3 24 32 18 46 -34 76 -48 29 -59 31
-51 10 3 -8 2 -15 -3 -15 -5 0 -11 9 -14 20 -3 11 -10 20 -16 20 -19 0 -12
-28 14 -54 15 -15 25 -37 25 -53 l0 -28 -20 32 c-24 39 -48 53 -95 53 -22 0
-38 6 -41 15 -11 28 -22 5 -13 -28 5 -17 9 -33 9 -34 0 -1 -32 4 -40 7 -3 1
-8 2 -12 1 -14 -2 -8 46 6 59 8 6 12 18 9 26 -7 20 -20 17 -26 -6 -3 -13 -10
-18 -21 -14 -13 5 -15 2 -10 -12 4 -11 4 -16 1 -13 -4 3 -13 23 -21 45 l-15
39 0 -41z m46 -246 c-3 -8 -6 -5 -6 6 -1 11 2 17 5 13 3 -3 4 -12 1 -19z m143
-18 c0 -5 -4 -10 -10 -10 -5 0 -10 5 -10 10 0 6 5 10 10 10 6 0 10 -4 10 -10z
m40 -110 c0 -5 -4 -10 -10 -10 -5 0 -10 5 -10 10 0 6 5 10 10 10 6 0 10 -4 10
-10z m-112 -96 c22 -15 30 -44 12 -44 -5 0 -10 7 -10 16 0 8 -4 13 -9 10 -13
-8 -41 39 -40 66 1 22 1 21 13 -5 7 -15 22 -34 34 -43z m11 -102 c1 -7 -3 -10
-9 -7 -5 3 -10 18 -9 33 0 24 1 25 9 7 5 -11 9 -26 9 -33z"/>
<path d="M3235 3326 c21 -31 55 -35 55 -6 0 11 -6 20 -12 20 -7 0 -24 3 -37 7
-23 6 -23 6 -6 -21z"/>
<path d="M180 3257 c0 -10 4 -17 9 -17 5 0 7 -19 5 -42 -2 -24 -1 -36 2 -26 3
9 11 19 19 22 17 6 32 -13 18 -23 -6 -3 -7 -15 -3 -26 6 -17 8 -16 14 9 5 20
2 34 -9 45 -8 10 -15 22 -15 28 0 5 -9 18 -20 28 -18 16 -20 16 -20 2z"/>
<path d="M3300 3251 c0 -5 5 -13 10 -16 6 -3 10 -2 10 4 0 5 -4 13 -10 16 -5
3 -10 2 -10 -4z"/>
<path d="M3010 3220 c0 -13 20 -13 40 0 12 8 9 10 -12 10 -16 0 -28 -4 -28
-10z"/>
<path d="M3360 3180 c0 -16 4 -30 8 -30 5 0 7 14 4 30 -2 17 -6 30 -8 30 -2 0
-4 -13 -4 -30z"/>
<path d="M80 3074 c0 -6 7 -19 16 -30 14 -18 14 -18 3 6 -14 31 -19 36 -19 24z"/>
<path d="M1154 3038 c3 -18 10 -67 16 -108 6 -41 15 -79 19 -83 5 -5 7 2 5 15
-2 13 -8 62 -15 111 -6 48 -15 90 -21 93 -5 4 -7 -7 -4 -28z"/>
<path d="M2701 2894 c0 -11 3 -14 6 -6 3 7 2 16 -1 19 -3 4 -6 -2 -5 -13z"/>
<path d="M286 2808 c-3 -17 -2 -36 4 -42 7 -7 10 -6 10 3 0 7 5 9 12 5 8 -5 9
-2 5 10 -4 10 -7 26 -7 37 0 31 -17 22 -24 -13z"/>
<path d="M4553 2833 c-7 -3 -13 -12 -13 -21 0 -15 2 -15 17 1 18 18 16 27 -4
20z"/>
<path d="M4553 2753 c-14 -5 -18 -33 -5 -33 4 0 13 5 20 12 22 22 14 33 -15
21z"/>
<path d="M250 2710 c0 -19 3 -21 12 -12 9 9 9 15 0 24 -9 9 -12 7 -12 -12z"/>
<path d="M1431 2718 c1 -7 5 -24 9 -38 8 -24 8 -24 9 7 1 17 -3 35 -9 38 -5 3
-10 0 -9 -7z"/>
<path d="M5007 2672 c-31 -3 -36 -6 -28 -20 5 -9 9 -83 10 -164 l1 -146 -32
-11 c-17 -6 -45 -11 -62 -11 -17 0 -38 -5 -46 -11 -11 -8 3 -9 50 -5 36 4 100
9 143 13 53 4 77 10 77 19 0 7 -14 14 -32 16 -28 3 -34 7 -36 32 -2 19 0 26 8
21 6 -4 22 -4 36 -1 l25 7 -3 122 c-3 117 -4 122 -24 122 -12 1 -28 5 -35 10
-8 6 -31 9 -52 7z m49 -158 c-3 -9 -6 -27 -6 -41 0 -15 -3 -23 -7 -19 -14 13
-9 76 6 76 8 0 11 -6 7 -16z"/>
<path d="M183 2614 c-3 -8 -1 -20 6 -27 8 -8 11 -4 11 16 0 30 -7 35 -17 11z"/>
<path d="M3203 2553 c4 -6 1 -14 -5 -16 -8 -3 -6 -6 5 -6 9 -1 17 -5 17 -11 0
-11 30 -13 54 -4 28 11 18 34 -13 34 -16 0 -37 3 -47 7 -11 4 -15 3 -11 -4z"/>
<path d="M2015 2450 c3 -5 8 -10 11 -10 2 0 4 5 4 10 0 6 -5 10 -11 10 -5 0
-7 -4 -4 -10z"/>
<path d="M45 2360 c4 -6 11 -8 16 -5 14 9 11 15 -7 15 -8 0 -12 -5 -9 -10z"/>
<path d="M1740 2360 c0 -5 5 -10 10 -10 6 0 10 5 10 10 0 6 -4 10 -10 10 -5 0
-10 -4 -10 -10z"/>
<path d="M4778 2293 c12 -2 30 -2 40 0 9 3 -1 5 -23 4 -22 0 -30 -2 -17 -4z"/>
<path d="M60 2246 c0 -17 14 -29 23 -20 8 8 -3 34 -14 34 -5 0 -9 -6 -9 -14z"/>
<path d="M1142 2230 c-51 -12 -48 -18 5 -13 54 6 95 23 53 22 -14 -1 -40 -5
-58 -9z"/>
<path d="M147 2203 c-4 -6 -5 -20 -2 -31 2 -12 -3 -28 -10 -36 -12 -12 -12
-15 5 -19 21 -5 40 10 40 33 -1 23 -26 64 -33 53z"/>
<path d="M240 2155 c0 -15 4 -24 10 -20 6 3 10 12 10 20 0 8 -4 17 -10 20 -6
4 -10 -5 -10 -20z"/>
<path d="M2800 2063 c14 -9 28 -21 31 -26 6 -8 235 -117 247 -117 11 0 -107
78 -129 85 -13 4 -29 14 -37 21 -7 8 -23 14 -35 14 -12 0 -35 9 -52 20 -16 11
-34 20 -40 20 -5 0 2 -8 15 -17z"/>
<path d="M150 2031 c0 -37 14 -61 27 -48 8 9 -8 87 -18 87 -5 0 -9 -18 -9 -39z"/>
<path d="M2045 1990 c3 -5 8 -10 11 -10 2 0 4 5 4 10 0 6 -5 10 -11 10 -5 0
-7 -4 -4 -10z"/>
</g>
</svg>
